<?xml version="1.0" encoding="us-ascii" standalone="no"?><svg xmlns="http://www.w3.org/2000/svg" xmlns:xlink="http://www.w3.org/1999/xlink" contentStyleType="text/css" height="347px" preserveAspectRatio="none" style="width:1074px;height:347px;background:#FFFFFF;" version="1.1" viewBox="0 0 1074 347" width="1074px" zoomAndPan="magnify"><defs/><g><text fill="#000000" font-family="monospace" font-size="14" font-weight="bold" lengthAdjust="spacing" textLength="56" x="502" y="25.9951">Example</text><!--class Entity01--><g id="elem_Entity01"><rect codeLine="54" fill="#F1F1F1" height="115.1875" id="Entity01" rx="2.5" ry="2.5" style="stroke:#181818;stroke-width:0.5;" width="298" x="388" y="50.2969"/><ellipse cx="498" cy="66.4453" fill="#ADD1B2" rx="10" ry="10" style="stroke:#181818;stroke-width:1.0;"/><path d="M501,71.4453 L494.6563,71.4453 L494.6563,61.2422 L501,61.2422 L501,63.0234 L496.6719,63.0234 L496.6719,65.2109 L500.5938,65.2109 L500.5938,66.9922 L496.6719,66.9922 L496.6719,69.6641 L501,69.6641 L501,71.4453 Z " fill="#000000"/><text fill="#000000" font-family="monospace" font-size="14" font-weight="bold" lengthAdjust="spacing" textLength="64" x="520" y="71.292">Entity01</text><line style="stroke:#181818;stroke-width:0.5;" x1="389" x2="685" y1="82.5938" y2="82.5938"/><text fill="#000000" font-family="monospace" font-size="14" font-weight="bold" lengthAdjust="spacing" textLength="40" x="397" y="102.5889">e1_id</text><text fill="#000000" font-family="monospace" font-size="14" lengthAdjust="spacing" textLength="184" x="493" y="102.5889">number&#160;&#171;generated&#187;&#160;&#171;PK&#187;</text><line style="stroke:#181818;stroke-width:1.0;" x1="389" x2="685" y1="112.8906" y2="112.8906"/><text fill="#000000" font-family="monospace" font-size="14" font-weight="bold" lengthAdjust="spacing" textLength="32" x="397" y="132.8857">name</text><text fill="#000000" font-family="monospace" font-size="14" lengthAdjust="spacing" textLength="32" x="493" y="132.8857">text</text><text fill="#000000" font-family="monospace" font-size="14" font-weight="bold" lengthAdjust="spacing" textLength="88" x="397" y="155.1826">description</text><text fill="#000000" font-family="monospace" font-size="14" lengthAdjust="spacing" textLength="32" x="493" y="155.1826">text</text></g><!--class Entity02--><g id="elem_Entity02"><rect codeLine="54" fill="#F1F1F1" height="115.1875" id="Entity02" rx="2.5" ry="2.5" style="stroke:#181818;stroke-width:0.5;" width="330" x="7" y="225.2969"/><ellipse cx="133" cy="241.4453" fill="#ADD1B2" rx="10" ry="10" style="stroke:#181818;stroke-width:1.0;"/><path d="M136,246.4453 L129.6563,246.4453 L129.6563,236.2422 L136,236.2422 L136,238.0234 L131.6719,238.0234 L131.6719,240.2109 L135.5938,240.2109 L135.5938,241.9922 L131.6719,241.9922 L131.6719,244.6641 L136,244.6641 L136,246.4453 Z " fill="#000000"/><text fill="#000000" font-family="monospace" font-size="14" font-weight="bold" lengthAdjust="spacing" textLength="64" x="155" y="246.292">Entity02</text><line style="stroke:#181818;stroke-width:0.5;" x1="8" x2="336" y1="257.5938" y2="257.5938"/><text fill="#000000" font-family="monospace" font-size="14" font-weight="bold" lengthAdjust="spacing" textLength="40" x="16" y="277.5889">e2_id</text><text fill="#000000" font-family="monospace" font-size="14" lengthAdjust="spacing" textLength="184" x="144" y="277.5889">number&#160;&#171;generated&#187;&#160;&#171;PK&#187;</text><line style="stroke:#181818;stroke-width:1.0;" x1="8" x2="336" y1="287.8906" y2="287.8906"/><text fill="#000000" font-family="monospace" font-size="14" font-weight="bold" lengthAdjust="spacing" textLength="40" x="16" y="307.8857">e1_id</text><text fill="#000000" font-family="monospace" font-size="14" lengthAdjust="spacing" textLength="88" x="144" y="307.8857">number&#160;&#171;FK&#187;</text><text fill="#000000" font-family="monospace" font-size="14" font-weight="bold" lengthAdjust="spacing" textLength="104" x="16" y="330.1826">other_details</text><text fill="#000000" font-family="monospace" font-size="14" lengthAdjust="spacing" textLength="32" x="144" y="330.1826">text</text></g><!--class Entity03--><g id="elem_Entity03"><rect codeLine="54" fill="#F1F1F1" height="115.1875" id="Entity03" rx="2.5" ry="2.5" style="stroke:#181818;stroke-width:0.5;" width="330" x="372" y="225.2969"/><ellipse cx="498" cy="241.4453" fill="#ADD1B2" rx="10" ry="10" style="stroke:#181818;stroke-width:1.0;"/><path d="M501,246.4453 L494.6563,246.4453 L494.6563,236.2422 L501,236.2422 L501,238.0234 L496.6719,238.0234 L496.6719,240.2109 L500.5938,240.2109 L500.5938,241.9922 L496.6719,241.9922 L496.6719,244.6641 L501,244.6641 L501,246.4453 Z " fill="#000000"/><text fill="#000000" font-family="monospace" font-size="14" font-weight="bold" lengthAdjust="spacing" textLength="64" x="520" y="246.292">Entity03</text><line style="stroke:#181818;stroke-width:0.5;" x1="373" x2="701" y1="257.5938" y2="257.5938"/><text fill="#000000" font-family="monospace" font-size="14" font-weight="bold" lengthAdjust="spacing" textLength="40" x="381" y="277.5889">e3_id</text><text fill="#000000" font-family="monospace" font-size="14" lengthAdjust="spacing" textLength="184" x="509" y="277.5889">number&#160;&#171;generated&#187;&#160;&#171;PK&#187;</text><line style="stroke:#181818;stroke-width:1.0;" x1="373" x2="701" y1="287.8906" y2="287.8906"/><text fill="#000000" font-family="monospace" font-size="14" font-weight="bold" lengthAdjust="spacing" textLength="40" x="381" y="307.8857">e1_id</text><text fill="#000000" font-family="monospace" font-size="14" lengthAdjust="spacing" textLength="88" x="509" y="307.8857">number&#160;&#171;FK&#187;</text><text fill="#000000" font-family="monospace" font-size="14" font-weight="bold" lengthAdjust="spacing" textLength="104" x="381" y="330.1826">other_details</text><text fill="#000000" font-family="monospace" font-size="14" lengthAdjust="spacing" textLength="32" x="509" y="330.1826">text</text></g><!--class Entity04--><g id="elem_Entity04"><rect codeLine="54" fill="#F1F1F1" height="115.1875" id="Entity04" rx="2.5" ry="2.5" style="stroke:#181818;stroke-width:0.5;" width="330" x="737" y="225.2969"/><ellipse cx="863" cy="241.4453" fill="#ADD1B2" rx="10" ry="10" style="stroke:#181818;stroke-width:1.0;"/><path d="M866,246.4453 L859.6563,246.4453 L859.6563,236.2422 L866,236.2422 L866,238.0234 L861.6719,238.0234 L861.6719,240.2109 L865.5938,240.2109 L865.5938,241.9922 L861.6719,241.9922 L861.6719,244.6641 L866,244.6641 L866,246.4453 Z " fill="#000000"/><text fill="#000000" font-family="monospace" font-size="14" font-weight="bold" lengthAdjust="spacing" textLength="64" x="885" y="246.292">Entity04</text><line style="stroke:#181818;stroke-width:0.5;" x1="738" x2="1066" y1="257.5938" y2="257.5938"/><text fill="#000000" font-family="monospace" font-size="14" font-weight="bold" lengthAdjust="spacing" textLength="40" x="746" y="277.5889">e4_id</text><text fill="#000000" font-family="monospace" font-size="14" lengthAdjust="spacing" textLength="184" x="874" y="277.5889">number&#160;&#171;generated&#187;&#160;&#171;PK&#187;</text><line style="stroke:#181818;stroke-width:1.0;" x1="738" x2="1066" y1="287.8906" y2="287.8906"/><text fill="#000000" font-family="monospace" font-size="14" font-weight="bold" lengthAdjust="spacing" textLength="40" x="746" y="307.8857">e1_id</text><text fill="#000000" font-family="monospace" font-size="14" lengthAdjust="spacing" textLength="88" x="874" y="307.8857">number&#160;&#171;FK&#187;</text><text fill="#000000" font-family="monospace" font-size="14" font-weight="bold" lengthAdjust="spacing" textLength="104" x="746" y="330.1826">other_details</text><text fill="#000000" font-family="monospace" font-size="14" lengthAdjust="spacing" textLength="32" x="874" y="330.1826">text</text></g><!--link Entity01 to Entity02--><g id="link_Entity01_Entity02"><path codeLine="34" d="M379.75,108.2969 C278.89,108.2969 172,108.2969 172,108.2969 C172,108.2969 172,156.3469 172,207.1769 " fill="none" id="Entity01-Entity02" style="stroke:#181818;stroke-width:1.0;stroke-dasharray:7.0,7.0;"/><line style="stroke:#181818;stroke-width:1.0;" x1="383.75" x2="383.75" y1="104.2969" y2="112.2969"/><line style="stroke:#181818;stroke-width:1.0;" x1="380.75" x2="380.75" y1="104.2969" y2="112.2969"/><line style="stroke:#181818;stroke-width:1.0;" x1="379.75" x2="387.75" y1="108.2969" y2="108.2969"/><line style="stroke:#181818;stroke-width:1.0;" x1="172" x2="178" y1="217.1769" y2="225.1769"/><line style="stroke:#181818;stroke-width:1.0;" x1="172" x2="166" y1="217.1769" y2="225.1769"/><line style="stroke:#181818;stroke-width:1.0;" x1="172" x2="172" y1="217.1769" y2="225.1769"/><ellipse cx="172" cy="211.1769" fill="none" rx="4" ry="4" style="stroke:#181818;stroke-width:1.0;"/></g><!--link Entity01 to Entity03--><g id="link_Entity01_Entity03"><path codeLine="35" d="M537,180.5869 C537,199.6969 537,187.9569 537,207.0669 " fill="none" id="Entity01-Entity03" style="stroke:#181818;stroke-width:1.0;stroke-dasharray:7.0,7.0;"/><line style="stroke:#181818;stroke-width:1.0;" x1="537" x2="537" y1="176.5869" y2="165.5869"/><ellipse cx="537" cy="176.5869" fill="none" rx="4" ry="4" style="stroke:#181818;stroke-width:1.0;"/><line style="stroke:#181818;stroke-width:1.0;" x1="533" x2="541" y1="169.5869" y2="169.5869"/><line style="stroke:#181818;stroke-width:1.0;" x1="537" x2="543" y1="217.0669" y2="225.0669"/><line style="stroke:#181818;stroke-width:1.0;" x1="537" x2="531" y1="217.0669" y2="225.0669"/><line style="stroke:#181818;stroke-width:1.0;" x1="537" x2="537" y1="217.0669" y2="225.0669"/><ellipse cx="537" cy="211.0669" fill="none" rx="4" ry="4" style="stroke:#181818;stroke-width:1.0;"/></g><!--link Entity01 to Entity04--><g id="link_Entity01_Entity04"><path codeLine="36" d="M701.25,108.2969 C802.11,108.2969 902,108.2969 902,108.2969 C902,108.2969 902,156.3469 902,207.1769 " fill="none" id="Entity01-Entity04" style="stroke:#181818;stroke-width:1.0;stroke-dasharray:7.0,7.0;"/><line style="stroke:#181818;stroke-width:1.0;" x1="697.25" x2="686.25" y1="108.2969" y2="108.2969"/><ellipse cx="697.25" cy="108.2969" fill="none" rx="4" ry="4" style="stroke:#181818;stroke-width:1.0;"/><line style="stroke:#181818;stroke-width:1.0;" x1="690.25" x2="690.25" y1="112.2969" y2="104.2969"/><line style="stroke:#181818;stroke-width:1.0;" x1="902" x2="908" y1="217.1769" y2="225.1769"/><line style="stroke:#181818;stroke-width:1.0;" x1="902" x2="896" y1="217.1769" y2="225.1769"/><line style="stroke:#181818;stroke-width:1.0;" x1="902" x2="902" y1="217.1769" y2="225.1769"/><ellipse cx="902" cy="211.1769" fill="none" rx="4" ry="4" style="stroke:#181818;stroke-width:1.0;"/></g><!--SRC=[VP31QiCm38RlVWgjTD1TqZR9iHiCri4kOx07A4gi9juSEyGAB6lxxdD3qWMQvYP__oTRiljMfiGA2qWrElVCNAcaPdfBhVbKlmGhuIwAf3tMcb-juNSi20fhh2in9JakjHUiuq7uWL8gaq4qO8n9AmuzhGnnKnBOYdChSYNzQ-HBwOJOE6uqFObsuXU5sRdZ801oGabLMmBi_G2j28dLqgEJE8dDikiLTygaklRNagQ23EyoCbGXsofGTQ65OCM-T_k3HQd9-tClAMvMQtY4UsrHxhwSDOkP7r-JM_PfSAQpXty_dFJ3Ap-QzAChFvxquzuNysv1Mbms6QNXA8r6QUpfjl-Mup48x06wSpW8x328RWNn7m00]--></g></svg>